<svg width="14" height="14" viewBox="0 0 14 14" fill="none" xmlns="http://www.w3.org/2000/svg">
<g clip-path="url(#clip0_1556_1164)">
<path fill-rule="evenodd" clip-rule="evenodd" d="M1.70757 0.293407C1.51897 0.111249 1.26637 0.0104547 1.00417 0.0127331C0.741971 0.0150115 0.491159 0.12018 0.305751 0.305589C0.120343 0.490997 0.0151738 0.741809 0.0128954 1.00401C0.010617 1.2662 0.111411 1.5188 0.293569 1.70741L5.58657 7.00041L0.293569 12.2934C0.198059 12.3857 0.121877 12.496 0.0694681 12.618C0.0170591 12.74 -0.0105272 12.8712 -0.011681 13.004C-0.0128348 13.1368 0.0124669 13.2685 0.0627478 13.3914C0.113029 13.5143 0.187282 13.6259 0.281174 13.7198C0.375067 13.8137 0.486719 13.8879 0.609615 13.9382C0.732512 13.9885 0.864191 14.0138 0.996971 14.0127C1.12975 14.0115 1.26097 13.9839 1.38297 13.9315C1.50498 13.8791 1.61532 13.8029 1.70757 13.7074L7.00057 8.41441L12.2936 13.7074C12.4822 13.8896 12.7348 13.9904 12.997 13.9881C13.2592 13.9858 13.51 13.8806 13.6954 13.6952C13.8808 13.5098 13.986 13.259 13.9882 12.9968C13.9905 12.7346 13.8897 12.482 13.7076 12.2934L8.41457 7.00041L13.7076 1.70741C13.8897 1.5188 13.9905 1.2662 13.9882 1.00401C13.986 0.741809 13.8808 0.490997 13.6954 0.305589C13.51 0.12018 13.2592 0.0150115 12.997 0.0127331C12.7348 0.0104547 12.4822 0.111249 12.2936 0.293407L7.00057 5.58641L1.70757 0.293407Z" fill="black"/>
</g>
<defs>
<clipPath id="clip0_1556_1164">
<rect width="14" height="14" fill="white"/>
</clipPath>
</defs>
</svg>
