<svg width="19" height="19" viewBox="0 0 19 19" fill="none" xmlns="http://www.w3.org/2000/svg">
<path fill-rule="evenodd" clip-rule="evenodd" d="M6.68539 2.2483L18.7107 14.4105C18.8961 14.6016 19 14.8587 19 15.1264C19 15.3942 18.8961 15.6512 18.7107 15.8423L15.8817 18.7038C15.6941 18.8934 15.4397 19 15.1744 19C14.9092 19 14.6548 18.8934 14.4672 18.7038L2.44187 6.54151C2.256 6.35358 2.10856 6.13046 2.00796 5.88488C1.90737 5.6393 1.85559 5.37609 1.85559 5.11027C1.85559 4.84445 1.90737 4.58123 2.00796 4.33565C2.10856 4.09008 2.256 3.86695 2.44187 3.67903L3.85638 2.2483C4.23157 1.86892 4.74037 1.65579 5.27089 1.65579C5.8014 1.65579 6.3102 1.86892 6.68539 2.2483ZM3.22015 9.61242C3.66431 9.61242 3.97842 9.88461 4.17049 10.2519L4.22351 10.3652C4.51629 11.0513 4.99704 11.6384 5.60901 12.057L5.81908 12.1865C6.17721 12.3909 6.4393 12.7177 6.4393 13.1528C6.4393 13.5373 6.23623 13.8409 5.93912 14.0453L5.82408 14.1181C5.18506 14.4911 4.66716 15.0441 4.33355 15.7097L4.22851 15.9323C4.04145 16.3593 3.71633 16.6953 3.22015 16.6953C2.76799 16.6953 2.45888 16.418 2.26581 16.0467L2.21179 15.9323C1.91993 15.2481 1.43923 14.6636 0.827296 14.2486L0.621222 14.1212C0.262094 13.9168 0 13.5889 0 13.1528C0 12.7653 0.208074 12.4648 0.505181 12.2594L0.621222 12.1865C1.25759 11.8163 1.77294 11.2659 2.10375 10.603L2.21679 10.3642C2.39986 9.94228 2.72998 9.61242 3.22015 9.61242ZM8.80815 7.25687L7.39364 8.68761L15.1744 16.5577L16.5889 15.1269L8.80815 7.25687ZM15.6556 5.46593C15.8937 4.97923 16.4559 4.94686 16.738 5.36778L16.794 5.46491C17.0101 5.90506 17.3682 6.27843 17.8374 6.51722C18.3316 6.76613 18.3386 7.39752 17.8414 7.64643C17.448 7.84453 17.1174 8.1502 16.887 8.52875L16.797 8.69469C16.5569 9.18644 15.9927 9.21882 15.7116 8.7979L15.6556 8.70076C15.4606 8.30463 15.158 7.97294 14.7833 7.74458L14.6132 7.64946C14.1471 7.41472 14.116 6.85012 14.5162 6.57388L14.6082 6.51925C15.0041 6.32088 15.3361 6.01278 15.5656 5.63086L15.6556 5.46593ZM5.27189 3.67802L3.85538 5.10976L5.97714 7.25687L7.39264 5.82513L5.27089 3.67903L5.27189 3.67802ZM11.7232 0C12.0173 0 12.2334 0.168976 12.3774 0.403722L12.4374 0.515024C12.6755 0.997668 13.0557 1.4196 13.5478 1.71607L13.7439 1.82434C14.019 1.96296 14.2241 2.20175 14.2241 2.52958C14.2241 2.81593 14.067 3.0355 13.844 3.17716L13.7389 3.23787C13.2187 3.50095 12.8066 3.89961 12.5335 4.36606L12.4334 4.55123C12.2934 4.83859 12.0593 5.05917 11.7232 5.05917C11.4291 5.05917 11.213 4.89019 11.069 4.65545L11.0089 4.54415C10.7595 4.04494 10.3743 3.62822 9.89854 3.3431L9.70247 3.23483C9.42737 3.09621 9.2223 2.85641 9.2223 2.52857C9.2223 2.24324 9.37935 2.02367 9.60243 1.881L9.70747 1.82231C10.2277 1.55721 10.6398 1.16057 10.9129 0.693106L11.0129 0.507941C11.153 0.22058 11.3871 0 11.7232 0Z" fill="#76DE99"/>
</svg>
