<svg width="20" height="20" viewBox="0 0 20 20" fill="none" xmlns="http://www.w3.org/2000/svg">
<path fill-rule="evenodd" clip-rule="evenodd" d="M11.2488 2.5H8.74875C8.58299 2.5 8.42402 2.56585 8.30681 2.68306C8.1896 2.80027 8.12375 2.95924 8.12375 3.125V3.75H11.8738V3.125C11.8738 2.95924 11.8079 2.80027 11.6907 2.68306C11.5735 2.56585 11.4145 2.5 11.2488 2.5ZM13.7488 3.75V3.125C13.7488 2.46196 13.4854 1.82607 13.0165 1.35723C12.5477 0.888392 11.9118 0.625 11.2488 0.625H8.74875C8.08571 0.625 7.44982 0.888392 6.98098 1.35723C6.51214 1.82607 6.24875 2.46196 6.24875 3.125V3.75H2.8125C2.56386 3.75 2.3254 3.84877 2.14959 4.02459C1.97377 4.2004 1.875 4.43886 1.875 4.6875C1.875 4.93614 1.97377 5.1746 2.14959 5.35041C2.3254 5.52623 2.56386 5.625 2.8125 5.625H3.2025L3.59875 15.1562C3.63907 16.1231 4.05154 17.0368 4.74995 17.7066C5.44835 18.3763 6.37861 18.7502 7.34625 18.75H12.6525C13.6199 18.7499 14.5499 18.3759 15.248 17.7062C15.9461 17.0364 16.3584 16.1228 16.3988 15.1562L16.7963 5.625H17.1863C17.4349 5.625 17.6733 5.52623 17.8492 5.35041C18.025 5.1746 18.1238 4.93614 18.1238 4.6875C18.1238 4.43886 18.025 4.2004 17.8492 4.02459C17.6733 3.84877 17.4349 3.75 17.1863 3.75H13.7488ZM14.9188 5.625H5.07875L5.4725 15.0775C5.4925 15.561 5.69867 16.0181 6.04789 16.3531C6.39711 16.6881 6.86233 16.8751 7.34625 16.875H12.6525C13.1362 16.8748 13.6011 16.6876 13.9501 16.3526C14.299 16.0177 14.505 15.5608 14.525 15.0775L14.9188 5.625ZM7.18625 8.125V14.375C7.18625 14.6236 7.28502 14.8621 7.46084 15.0379C7.63665 15.2137 7.87511 15.3125 8.12375 15.3125C8.37239 15.3125 8.61085 15.2137 8.78666 15.0379C8.96248 14.8621 9.06125 14.6236 9.06125 14.375V8.125C9.06125 7.87636 8.96248 7.6379 8.78666 7.46209C8.61085 7.28627 8.37239 7.1875 8.12375 7.1875C7.87511 7.1875 7.63665 7.28627 7.46084 7.46209C7.28502 7.6379 7.18625 7.87636 7.18625 8.125ZM11.8738 7.1875C12.1224 7.1875 12.3608 7.28627 12.5367 7.46209C12.7125 7.6379 12.8113 7.87636 12.8113 8.125V14.375C12.8113 14.6236 12.7125 14.8621 12.5367 15.0379C12.3608 15.2137 12.1224 15.3125 11.8738 15.3125C11.6251 15.3125 11.3867 15.2137 11.2108 15.0379C11.035 14.8621 10.9363 14.6236 10.9363 14.375V8.125C10.9363 7.87636 11.035 7.6379 11.2108 7.46209C11.3867 7.28627 11.6251 7.1875 11.8738 7.1875Z" fill="black"/>
</svg>
