<svg width="20" height="20" viewBox="0 0 20 20" fill="none" xmlns="http://www.w3.org/2000/svg">
<path d="M3.77778 16.2222H5.04444L13.7333 7.53333L12.4667 6.26667L3.77778 14.9556V16.2222ZM2 18V14.2222L13.7333 2.51111C13.9111 2.34815 14.1076 2.22222 14.3227 2.13333C14.5378 2.04444 14.7636 2 15 2C15.2364 2 15.4661 2.04444 15.6889 2.13333C15.9117 2.22222 16.1043 2.35556 16.2667 2.53333L17.4889 3.77778C17.6667 3.94074 17.7964 4.13333 17.8782 4.35556C17.96 4.57778 18.0006 4.8 18 5.02222C18 5.25926 17.9594 5.48533 17.8782 5.70044C17.797 5.91556 17.6673 6.1117 17.4889 6.28889L5.77778 18H2ZM13.0889 6.91111L12.4667 6.26667L13.7333 7.53333L13.0889 6.91111Z" fill="#C7C5C5"/>
</svg>
