<svg width="19" height="19" viewBox="0 0 19 19" fill="none" xmlns="http://www.w3.org/2000/svg">
<g clip-path="url(#clip0_615_2375)">
<path fill-rule="evenodd" clip-rule="evenodd" d="M12.4343 8.93995C12.5827 9.08841 12.6661 9.28973 12.6661 9.49965C12.6661 9.70958 12.5827 9.9109 12.4343 10.0594L7.95583 14.5378C7.8828 14.6134 7.79544 14.6737 7.69886 14.7152C7.60227 14.7567 7.49839 14.7786 7.39327 14.7795C7.28816 14.7804 7.18391 14.7604 7.08662 14.7206C6.98932 14.6807 6.90093 14.622 6.8266 14.5476C6.75227 14.4733 6.69348 14.3849 6.65368 14.2876C6.61387 14.1903 6.59384 14.0861 6.59476 13.981C6.59567 13.8758 6.61751 13.772 6.659 13.6754C6.70049 13.5788 6.7608 13.4914 6.83641 13.4184L10.7552 9.49965L6.83641 5.5809C6.6922 5.43159 6.61241 5.23162 6.61421 5.02405C6.61602 4.81647 6.69927 4.61791 6.84606 4.47113C6.99284 4.32435 7.1914 4.24109 7.39897 4.23929C7.60654 4.23748 7.80652 4.31728 7.95583 4.46149L12.4343 8.93995Z" fill="#E8E8E8"/>
</g>
<defs>
<clipPath id="clip0_615_2375">
<rect width="19" height="19" fill="white"/>
</clipPath>
</defs>
</svg>
