<svg width="17" height="17" viewBox="0 0 17 17" fill="none" xmlns="http://www.w3.org/2000/svg">
<path d="M8.01627 3.95442C8.18635 3.95442 8.34946 3.88686 8.46972 3.7666C8.58998 3.64634 8.65755 3.48323 8.65755 3.31315C8.65755 3.14307 8.58998 2.97996 8.46972 2.8597C8.34946 2.73944 8.18635 2.67188 8.01627 2.67188C7.8462 2.67188 7.68309 2.73944 7.56282 2.8597C7.44256 2.97996 7.375 3.14307 7.375 3.31315C7.375 3.48323 7.44256 3.64634 7.56282 3.7666C7.68309 3.88686 7.8462 3.95442 8.01627 3.95442ZM8.01627 8.6571C8.18635 8.6571 8.34946 8.58953 8.46972 8.46927C8.58998 8.34901 8.65755 8.1859 8.65755 8.01582C8.65755 7.84575 8.58998 7.68264 8.46972 7.56237C8.34946 7.44211 8.18635 7.37455 8.01627 7.37455C7.8462 7.37455 7.68309 7.44211 7.56282 7.56237C7.44256 7.68264 7.375 7.84575 7.375 8.01582C7.375 8.1859 7.44256 8.34901 7.56282 8.46927C7.68309 8.58953 7.8462 8.6571 8.01627 8.6571ZM8.01627 13.3598C8.18635 13.3598 8.34946 13.2922 8.46972 13.1719C8.58998 13.0517 8.65755 12.8886 8.65755 12.7185C8.65755 12.5484 8.58998 12.3853 8.46972 12.265C8.34946 12.1448 8.18635 12.0772 8.01627 12.0772C7.8462 12.0772 7.68309 12.1448 7.56282 12.265C7.44256 12.3853 7.375 12.5484 7.375 12.7185C7.375 12.8886 7.44256 13.0517 7.56282 13.1719C7.68309 13.2922 7.8462 13.3598 8.01627 13.3598Z" stroke="white" stroke-width="1.2" stroke-linecap="round" stroke-linejoin="round"/>
</svg>
