<svg width="21" height="21" viewBox="0 0 21 21" fill="none" xmlns="http://www.w3.org/2000/svg">
<path fill-rule="evenodd" clip-rule="evenodd" d="M6.125 1.53125C6.29905 1.53125 6.46597 1.60039 6.58904 1.72346C6.71211 1.84653 6.78125 2.01345 6.78125 2.1875V2.85512C7.3605 2.84375 7.99838 2.84375 8.701 2.84375H12.299C13.0016 2.84375 13.6395 2.84375 14.2188 2.85512V2.1875C14.2188 2.01345 14.2879 1.84653 14.411 1.72346C14.534 1.60039 14.701 1.53125 14.875 1.53125C15.049 1.53125 15.216 1.60039 15.339 1.72346C15.4621 1.84653 15.5312 2.01345 15.5312 2.1875V2.91112C15.7587 2.92862 15.9743 2.95079 16.1779 2.97763C17.2034 3.11588 18.0337 3.40637 18.6891 4.06087C19.3436 4.71625 19.6341 5.54663 19.7724 6.57212C19.8155 6.89996 19.8468 7.25871 19.866 7.64838C19.9136 7.77748 19.9194 7.91828 19.8826 8.05088C19.9062 8.75175 19.9062 9.54887 19.9062 10.451V12.25C19.9062 12.424 19.8371 12.591 19.714 12.714C19.591 12.8371 19.424 12.9062 19.25 12.9062C19.076 12.9062 18.909 12.8371 18.786 12.714C18.6629 12.591 18.5938 12.424 18.5938 12.25V10.5C18.5938 9.75275 18.5938 9.10262 18.5824 8.53125H2.41762C2.40625 9.10262 2.40625 9.75275 2.40625 10.5V12.25C2.40625 13.9186 2.408 15.1043 2.52875 16.0038C2.64688 16.8831 2.86912 17.3906 3.23925 17.7607C3.60938 18.1309 4.11687 18.3531 4.99712 18.4713C5.89663 18.592 7.08138 18.5938 8.75 18.5938H12.25C12.424 18.5938 12.591 18.6629 12.714 18.786C12.8371 18.909 12.9062 19.076 12.9062 19.25C12.9062 19.424 12.8371 19.591 12.714 19.714C12.591 19.8371 12.424 19.9062 12.25 19.9062H8.701C7.09275 19.9062 5.81875 19.9062 4.82213 19.7724C3.79663 19.6341 2.96625 19.3436 2.31088 18.6891C1.65637 18.0337 1.36588 17.2034 1.22762 16.1779C1.09375 15.1804 1.09375 13.9072 1.09375 12.299V10.451C1.09375 9.54887 1.09375 8.75175 1.11737 8.05C1.08086 7.91732 1.08698 7.77651 1.13488 7.6475C1.15354 7.25842 1.18446 6.89996 1.22762 6.57212C1.36588 5.54663 1.65637 4.71625 2.31088 4.06087C2.96625 3.40637 3.79663 3.11588 4.82213 2.97763C5.02629 2.95079 5.24183 2.92862 5.46875 2.91112V2.1875C5.46875 2.01345 5.53789 1.84653 5.66096 1.72346C5.78403 1.60039 5.95095 1.53125 6.125 1.53125ZM2.478 7.21875H18.522C18.508 7.05308 18.4911 6.89558 18.4713 6.74625C18.3531 5.86688 18.1309 5.35938 17.7607 4.98925C17.3906 4.61913 16.8831 4.39687 16.0029 4.27875C15.1042 4.158 13.9186 4.15625 12.25 4.15625H8.75C7.08138 4.15625 5.89663 4.158 4.99625 4.27875C4.11687 4.39687 3.60938 4.61913 3.23925 4.98925C2.86912 5.35938 2.64688 5.86688 2.52875 6.74625C2.50892 6.895 2.492 7.05221 2.478 7.21787M15.75 13.7812C15.2279 13.7812 14.7271 13.9887 14.3579 14.3579C13.9887 14.7271 13.7812 15.2279 13.7812 15.75C13.7812 16.2721 13.9887 16.7729 14.3579 17.1421C14.7271 17.5113 15.2279 17.7188 15.75 17.7188C16.2721 17.7188 16.7729 17.5113 17.1421 17.1421C17.5113 16.7729 17.7188 16.2721 17.7188 15.75C17.7188 15.2279 17.5113 14.7271 17.1421 14.3579C16.7729 13.9887 16.2721 13.7812 15.75 13.7812ZM12.4688 15.75C12.4689 15.2384 12.5887 14.7339 12.8185 14.2769C13.0484 13.8198 13.3819 13.4228 13.7925 13.1176C14.2031 12.8124 14.6793 12.6074 15.1832 12.5191C15.6871 12.4307 16.2047 12.4614 16.6947 12.6087C17.1846 12.756 17.6333 13.0158 18.005 13.3674C18.3766 13.7189 18.6609 14.1525 18.8351 14.6336C19.0093 15.1146 19.0687 15.6297 19.0084 16.1377C18.9481 16.6457 18.7698 17.1326 18.4879 17.5595L19.7138 18.7862C19.7782 18.8463 19.8299 18.9188 19.8658 18.9993C19.9017 19.0798 19.921 19.1667 19.9225 19.2548C19.9241 19.3429 19.9079 19.4304 19.8749 19.5121C19.8419 19.5939 19.7927 19.6681 19.7304 19.7304C19.6681 19.7927 19.5939 19.8419 19.5121 19.8749C19.4304 19.9079 19.3429 19.9241 19.2548 19.9225C19.1667 19.921 19.0798 19.9017 18.9993 19.8658C18.9188 19.8299 18.8463 19.7782 18.7862 19.7138L17.5595 18.4879C17.0649 18.8148 16.491 19.0017 15.8987 19.0285C15.3065 19.0554 14.718 18.9213 14.1958 18.6405C13.6737 18.3597 13.2373 17.9426 12.9332 17.4337C12.6291 16.9247 12.4686 16.3429 12.4688 15.75Z" fill="white"/>
</svg>
