<svg width="23" height="23" viewBox="0 0 23 23" fill="none" xmlns="http://www.w3.org/2000/svg">
<path d="M21.7586 5.05971L11.6966 2.18484C11.5675 2.14835 11.4313 2.14835 11.3022 2.18484L1.24022 5.05971C1.01548 5.13192 0.827411 5.30262 0.757217 5.53231C0.733801 5.60246 0.725593 5.67823 0.71875 5.75104V16.5317C0.71875 16.8356 0.909672 17.1065 1.196 17.2083L11.258 20.8019C11.4146 20.8558 11.5842 20.8563 11.7408 20.8018C11.7408 20.8019 21.8028 17.2083 21.8028 17.2083C22.0891 17.1066 22.2801 16.8356 22.2801 16.5317C22.2828 16.5202 22.2802 5.74715 22.2783 5.7364C22.2673 5.42725 22.0571 5.14724 21.7586 5.05971ZM10.7807 19.1054L2.15616 16.0249V6.77153L3.50737 7.25395V10.3436C3.50737 10.6455 3.7014 10.9186 3.98168 11.0191L8.4736 12.6147C8.54551 12.6434 8.63175 12.6578 8.7108 12.6578C8.85456 12.6578 9.00551 12.6147 9.12769 12.5285C9.31453 12.3919 9.42951 12.1763 9.42951 11.9391V9.36822L10.7807 9.85074L10.7807 19.1054ZM4.94478 9.83332V7.7706L7.9921 8.85588V10.9186L4.94478 9.83332ZM11.4996 8.58157L3.7873 5.82685L11.4994 3.62366L19.2115 5.82685L11.4996 8.58157ZM20.8427 16.0249L12.2181 19.1054V9.85135L20.8427 6.77083V16.0249Z" fill="white"/>
</svg>
