<svg width="19" height="19" viewBox="0 0 19 19" fill="none" xmlns="http://www.w3.org/2000/svg">
<g clip-path="url(#clip0_752_894)">
<path d="M5.9375 8.90625H2.96875C1.33237 8.90625 0 7.57388 0 5.9375V2.96875C0 1.33237 1.33237 0 2.96875 0H5.9375C7.57388 0 8.90625 1.33237 8.90625 2.96875V5.9375C8.90625 7.57388 7.57388 8.90625 5.9375 8.90625ZM2.96875 1.1875C1.98669 1.1875 1.1875 1.98669 1.1875 2.96875V5.9375C1.1875 6.91956 1.98669 7.71875 2.96875 7.71875H5.9375C6.91956 7.71875 7.71875 6.91956 7.71875 5.9375V2.96875C7.71875 1.98669 6.91956 1.1875 5.9375 1.1875H2.96875Z" fill="white"/>
<path d="M16.0312 8.90625H13.0625C11.4249 8.90625 10.0938 7.57506 10.0938 5.9375V2.96875C10.0938 1.33237 11.4249 0 13.0625 0H16.0312C17.6688 0 19 1.33237 19 2.96875V5.9375C19 7.57506 17.6688 8.90625 16.0312 8.90625ZM13.0625 1.1875C12.0804 1.1875 11.2812 1.98669 11.2812 2.96875V5.9375C11.2812 6.91956 12.0804 7.71875 13.0625 7.71875H16.0312C17.0133 7.71875 17.8125 6.91956 17.8125 5.9375V2.96875C17.8125 1.98669 17.0133 1.1875 16.0312 1.1875H13.0625Z" fill="white"/>
<path d="M16.0312 18.8682H13.0625C11.4249 18.8682 10.0938 17.537 10.0938 15.8994V12.9307C10.0938 11.2931 11.4249 9.96191 13.0625 9.96191H16.0312C17.6688 9.96191 19 11.2931 19 12.9307V15.8994C19 17.537 17.6688 18.8682 16.0312 18.8682ZM13.0625 11.1494C12.0804 11.1494 11.2812 11.9486 11.2812 12.9307V15.8994C11.2812 16.8815 12.0804 17.6807 13.0625 17.6807H16.0312C17.0133 17.6807 17.8125 16.8815 17.8125 15.8994V12.9307C17.8125 11.9486 17.0133 11.1494 16.0312 11.1494H13.0625Z" fill="white"/>
<path d="M5.9375 18.8682H2.96875C1.33119 18.8682 0 17.537 0 15.8994V12.9307C0 11.2931 1.33119 9.96191 2.96875 9.96191H5.9375C7.57506 9.96191 8.90625 11.2931 8.90625 12.9307V15.8994C8.90625 17.537 7.57506 18.8682 5.9375 18.8682ZM2.96875 11.1494C1.98669 11.1494 1.1875 11.9486 1.1875 12.9307V15.8994C1.1875 16.8815 1.98669 17.6807 2.96875 17.6807H5.9375C6.91956 17.6807 7.71875 16.8815 7.71875 15.8994V12.9307C7.71875 11.9486 6.91956 11.1494 5.9375 11.1494H2.96875Z" fill="white"/>
</g>
<defs>
<clipPath id="clip0_752_894">
<rect width="19" height="19" fill="white"/>
</clipPath>
</defs>
</svg>
