<svg width="17" height="17" viewBox="0 0 17 17" fill="none" xmlns="http://www.w3.org/2000/svg">
<path d="M13.5253 14L9.32111 9.79603C8.98541 10.082 8.59937 10.3033 8.16296 10.46C7.72656 10.6166 7.28792 10.695 6.84705 10.695C5.77372 10.695 4.86422 10.3221 4.11853 9.5765C3.37284 8.83041 3 7.92074 3 6.84748C3 5.77422 3.37284 4.86477 4.11853 4.11913C4.86422 3.37349 5.77372 3.00045 6.84705 3C7.92037 2.99955 8.8301 3.3726 9.57623 4.11913C10.3224 4.86567 10.6952 5.77512 10.6948 6.84748C10.6948 7.31384 10.6122 7.76521 10.447 8.20159C10.2819 8.63796 10.0648 9.01123 9.79578 9.32139L14 13.5247L13.5253 14ZM6.84772 10.0229C7.73842 10.0229 8.49038 9.71637 9.10358 9.1032C9.71678 8.49004 10.0234 7.73791 10.0234 6.84681C10.0234 5.95571 9.71678 5.2038 9.10358 4.59109C8.49038 3.97837 7.73842 3.67179 6.84772 3.67135C5.95701 3.6709 5.20483 3.97748 4.59119 4.59109C3.97754 5.2047 3.67094 5.95661 3.67139 6.84681C3.67183 7.73702 3.97843 8.48892 4.59119 9.10253C5.20394 9.71614 5.95589 10.0227 6.84705 10.0223" fill="#F3F3F3"/>
</svg>
