<svg width="15" height="19" viewBox="0 0 15 19" fill="none" xmlns="http://www.w3.org/2000/svg">
<path d="M0 16.5521V1.45834C0 1.04514 0.145834 0.698547 0.4375 0.418547C0.729167 0.138547 1.06944 -0.000967176 1.45833 5.04613e-06C1.57986 5.04613e-06 1.70771 0.0179914 1.84187 0.0539636C1.97604 0.0899359 2.1034 0.144866 2.22396 0.218755L14.1094 7.76563C14.3281 7.91146 14.4924 8.09375 14.6023 8.3125C14.7122 8.53125 14.7666 8.76216 14.7656 9.00521C14.7647 9.24827 14.7102 9.47917 14.6023 9.69792C14.4944 9.91667 14.3301 10.099 14.1094 10.2448L2.22396 17.7917C2.10243 17.8646 1.97507 17.9195 1.84187 17.9565C1.70868 17.9934 1.58083 18.0114 1.45833 18.0104C1.06944 18.0104 0.729167 17.8704 0.4375 17.5904C0.145834 17.3104 0 16.9643 0 16.5521Z" fill="#76DE99"/>
</svg>
