<svg width="24" height="24" viewBox="0 0 24 24" fill="none" xmlns="http://www.w3.org/2000/svg">
<path fill-rule="evenodd" clip-rule="evenodd" d="M2 1.25C2.41421 1.25 2.75 1.58579 2.75 2V20C2.75 20.6904 3.30964 21.25 4 21.25H22C22.4142 21.25 22.75 21.5858 22.75 22C22.75 22.4142 22.4142 22.75 22 22.75H4C2.48122 22.75 1.25 21.5188 1.25 20V2C1.25 1.58579 1.58579 1.25 2 1.25Z" fill="white"/>
<path fill-rule="evenodd" clip-rule="evenodd" d="M14.25 3C14.25 2.58579 14.5858 2.25 15 2.25H20C20.4142 2.25 20.75 2.58579 20.75 3V13C20.75 13.4142 20.4142 13.75 20 13.75C19.5858 13.75 19.25 13.4142 19.25 13V3.75H15.75V18.25H19.25V17C19.25 16.5858 19.5858 16.25 20 16.25C20.4142 16.25 20.75 16.5858 20.75 17V19C20.75 19.4142 20.4142 19.75 20 19.75H15C14.5858 19.75 14.25 19.4142 14.25 19V3Z" fill="white"/>
<path fill-rule="evenodd" clip-rule="evenodd" d="M9.25 7C9.25 6.58579 9.58579 6.25 10 6.25H15C15.4142 6.25 15.75 6.58579 15.75 7V19C15.75 19.4142 15.4142 19.75 15 19.75H10C9.58579 19.75 9.25 19.4142 9.25 19V7ZM10.75 7.75V18.25H14.25V7.75H10.75Z" fill="white"/>
<path fill-rule="evenodd" clip-rule="evenodd" d="M4.25 12C4.25 11.5858 4.58579 11.25 5 11.25H10C10.4142 11.25 10.75 11.5858 10.75 12V19C10.75 19.4142 10.4142 19.75 10 19.75H5C4.58579 19.75 4.25 19.4142 4.25 19V12ZM5.75 12.75V18.25H9.25V12.75H5.75Z" fill="white"/>
</svg>
