<svg width="23" height="23" viewBox="0 0 23 23" fill="none" xmlns="http://www.w3.org/2000/svg">
<path d="M8.38542 10.3021C8.38542 10.8314 7.95635 11.2604 7.42708 11.2604C6.89782 11.2604 6.46875 10.8314 6.46875 10.3021C6.46875 9.7728 6.89782 9.34375 7.42708 9.34375C7.95635 9.34375 8.38542 9.7728 8.38542 10.3021Z" fill="black"/>
<path d="M12.2184 10.3021C12.2184 10.8314 11.7894 11.2604 11.2601 11.2604C10.7308 11.2604 10.3018 10.8314 10.3018 10.3021C10.3018 9.7728 10.7308 9.34375 11.2601 9.34375C11.7894 9.34375 12.2184 9.7728 12.2184 10.3021Z" fill="black"/>
<path d="M16.0514 10.3021C16.0514 10.8314 15.6224 11.2604 15.0931 11.2604C14.5638 11.2604 14.1348 10.8314 14.1348 10.3021C14.1348 9.7728 14.5638 9.34375 15.0931 9.34375C15.6224 9.34375 16.0514 9.7728 16.0514 10.3021Z" fill="black"/>
<path fill-rule="evenodd" clip-rule="evenodd" d="M16.291 4.55204C16.291 3.09655 17.4709 1.91663 18.9264 1.91663C20.3819 1.91663 21.5618 3.09655 21.5618 4.55204C21.5618 6.00754 20.3819 7.18746 18.9264 7.18746C17.4709 7.18746 16.291 6.00754 16.291 4.55204ZM18.9264 3.35413C18.2648 3.35413 17.7285 3.89045 17.7285 4.55204C17.7285 5.21364 18.2648 5.74996 18.9264 5.74996C19.5881 5.74996 20.1243 5.21364 20.1243 4.55204C20.1243 3.89045 19.5881 3.35413 18.9264 3.35413Z" fill="black"/>
<path d="M20.5147 8.04203C20.956 7.84091 21.5482 8.1026 21.555 8.58756C21.5622 9.09062 21.5622 9.64846 21.5622 10.2698V11.5777C21.5624 13.0618 21.5626 13.9671 21.3396 14.7275C20.8115 16.5284 19.4031 17.9368 17.6022 18.4648C16.8418 18.6878 15.9365 18.6877 14.4524 18.6875H13.7857L13.7279 18.6876C12.8968 18.6928 12.0873 18.9523 11.408 19.431L11.3608 19.4646L8.8589 21.2517C7.41708 22.2815 5.52243 20.7943 6.18048 19.1491C6.26893 18.928 6.10609 18.6875 5.86794 18.6875H5.29127C2.89807 18.6875 0.958008 16.7474 0.958008 14.3542V10.2698C0.958003 8.95532 0.958 7.9247 1.02568 7.09636C1.09459 6.25288 1.23725 5.55607 1.55861 4.92536C2.08691 3.88851 2.92989 3.04552 3.96674 2.51722C4.59745 2.19587 5.29426 2.05321 6.13774 1.98429C6.96608 1.91662 7.9967 1.91663 9.31126 1.91663H13.209C13.8302 1.91663 14.3882 1.91663 14.8912 1.92377C15.3762 1.93066 15.6379 2.52277 15.4368 2.9641C15.3309 3.19641 15.1045 3.3643 14.8492 3.36083C14.364 3.35425 13.8124 3.35413 13.1768 3.35413H9.34342C7.98977 3.35413 7.01776 3.35468 6.25479 3.41702C5.50022 3.47867 5.01365 3.59715 4.61936 3.79805C3.85299 4.18853 3.22991 4.81161 2.83943 5.57798C2.63853 5.97226 2.52005 6.45884 2.4584 7.21341C2.39606 7.97638 2.39551 8.94839 2.39551 10.302V14.3542C2.39551 15.9535 3.69198 17.25 5.29127 17.25H5.86794C7.12307 17.25 7.98132 18.5176 7.51517 19.683C7.39031 19.9951 7.7498 20.2773 8.02337 20.0819L10.5799 18.2559C11.499 17.6083 12.5943 17.2572 13.7187 17.2501L13.7857 17.25H14.3116C15.9809 17.25 16.6615 17.2427 17.1977 17.0854C18.5289 16.6951 19.5698 15.6541 19.9601 14.323C20.1174 13.7868 20.1247 13.1062 20.1247 11.4369V10.302C20.1247 9.66638 20.1246 9.1148 20.118 8.62956C20.1145 8.37429 20.2824 8.14791 20.5147 8.04203Z" fill="black"/>
</svg>
