<svg width="21" height="21" viewBox="0 0 21 21" fill="none" xmlns="http://www.w3.org/2000/svg">
<path d="M14.266 3.0625C14.7188 3.33485 15.0934 3.71972 15.3535 4.1797C15.6135 4.63967 15.7501 5.15911 15.75 5.6875C15.7501 6.21589 15.6135 6.73533 15.3535 7.1953C15.0934 7.65528 14.7188 8.04015 14.266 8.3125M19.25 18.375V17.85C19.25 15.89 19.25 14.91 18.8685 14.161C18.5329 13.5025 17.9975 12.9671 17.339 12.6315M8.3125 8.75C8.71467 8.75 9.11291 8.67079 9.48447 8.51688C9.85603 8.36298 10.1936 8.13739 10.478 7.85301C10.7624 7.56863 10.988 7.23103 11.1419 6.85947C11.2958 6.48791 11.375 6.08967 11.375 5.6875C11.375 5.28533 11.2958 4.88709 11.1419 4.51553C10.988 4.14397 10.7624 3.80637 10.478 3.52199C10.1936 3.23761 9.85603 3.01202 9.48447 2.85812C9.11291 2.70421 8.71467 2.625 8.3125 2.625C7.50027 2.625 6.72132 2.94766 6.14699 3.52199C5.57266 4.09632 5.25 4.87527 5.25 5.6875C5.25 6.49973 5.57266 7.27868 6.14699 7.85301C6.72132 8.42734 7.50027 8.75 8.3125 8.75ZM1.75 17.85V18.375H14.875V17.85C14.875 15.89 14.875 14.91 14.4935 14.161C14.1579 13.5025 13.6225 12.9671 12.964 12.6315C12.215 12.25 11.235 12.25 9.275 12.25H7.35C5.39 12.25 4.41 12.25 3.661 12.6315C3.00246 12.9671 2.46705 13.5025 2.1315 14.161C1.75 14.91 1.75 15.89 1.75 17.85Z" stroke="white" stroke-width="1.4" stroke-linecap="round" stroke-linejoin="round"/>
</svg>
