<svg width="15" height="19" viewBox="0 0 15 19" fill="none" xmlns="http://www.w3.org/2000/svg">
<path d="M14.7656 16.5521V1.45834C14.7656 1.04514 14.6198 0.698547 14.3281 0.418547C14.0365 0.138547 13.6962 -0.000967176 13.3073 5.04613e-06C13.1858 5.04613e-06 13.0579 0.0179914 12.9238 0.0539636C12.7896 0.0899359 12.6622 0.144866 12.5417 0.218755L0.656252 7.76563C0.437502 7.91146 0.273194 8.09375 0.163333 8.3125C0.0534717 8.53125 -0.000971342 8.76216 8.801e-07 9.00521C0.000973102 9.24827 0.0554162 9.47917 0.163333 9.69792C0.27125 9.91667 0.435557 10.099 0.656252 10.2448L12.5417 17.7917C12.6632 17.8646 12.7906 17.9195 12.9238 17.9565C13.0569 17.9934 13.1848 18.0114 13.3073 18.0104C13.6962 18.0104 14.0365 17.8704 14.3281 17.5904C14.6198 17.3104 14.7656 16.9643 14.7656 16.5521Z" fill="#76DE99"/>
</svg>
