<svg width="16" height="16" viewBox="0 0 16 16" fill="none" xmlns="http://www.w3.org/2000/svg">
<g clip-path="url(#clip0_822_6602)">
<path d="M4.30769 0C3.96862 0 3.69231 0.276308 3.69231 0.615385V2.46154C3.69231 2.80062 3.96862 3.07692 4.30769 3.07692C4.64677 3.07692 4.92308 2.80062 4.92308 2.46154V0.615385C4.92308 0.276308 4.64677 0 4.30769 0ZM11.6923 0C11.3532 0 11.0769 0.276308 11.0769 0.615385V2.46154C11.0769 2.80062 11.3532 3.07692 11.6923 3.07692C12.0314 3.07692 12.3077 2.80062 12.3077 2.46154V0.615385C12.3077 0.276308 12.0314 0 11.6923 0ZM1.84615 1.23077C0.827077 1.23077 0 2.05785 0 3.07692V14.1538C0 15.1729 0.827077 16 1.84615 16H14.1538C15.1729 16 16 15.1729 16 14.1538V3.07692C16 2.05785 15.1729 1.23077 14.1538 1.23077H12.9231V2.46154C12.9231 2.78796 12.7934 3.10101 12.5626 3.33182C12.3318 3.56264 12.0187 3.69231 11.6923 3.69231C11.3659 3.69231 11.0528 3.56264 10.822 3.33182C10.5912 3.10101 10.4615 2.78796 10.4615 2.46154V1.23077H5.53846V2.46154C5.53846 2.78796 5.40879 3.10101 5.17798 3.33182C4.94716 3.56264 4.63411 3.69231 4.30769 3.69231C3.98127 3.69231 3.66822 3.56264 3.43741 3.33182C3.20659 3.10101 3.07692 2.78796 3.07692 2.46154V1.23077H1.84615ZM1.23077 5.53846H14.7692V14.1538C14.7692 14.4929 14.4929 14.7692 14.1538 14.7692H1.84615C1.50708 14.7692 1.23077 14.4929 1.23077 14.1538V5.53846ZM10.4037 6.86523C10.3568 6.87384 10.3121 6.89193 10.2725 6.91838C10.2328 6.94483 10.1989 6.97909 10.1729 7.01908L7.15385 11.4806L5.75015 10.096C5.71612 10.0618 5.67566 10.0346 5.63109 10.0161C5.58653 9.99752 5.53873 9.98797 5.49046 9.98797C5.44219 9.98797 5.3944 9.99752 5.34983 10.0161C5.30526 10.0346 5.2648 10.0618 5.23077 10.096L4.69231 10.6154C4.62213 10.6874 4.58285 10.784 4.58285 10.8846C4.58285 10.9852 4.62213 11.0818 4.69231 11.1538L6.82708 13.2886C6.94708 13.4074 7.13785 13.4997 7.30769 13.4997C7.47754 13.4997 7.65969 13.3914 7.76923 13.2308L11.4037 7.86523C11.4598 7.78362 11.4812 7.68306 11.4632 7.58566C11.4452 7.48826 11.3893 7.402 11.3077 7.34585L10.6923 6.92308C10.6072 6.86722 10.5038 6.84649 10.4037 6.86523ZM555.077 904V905.231H571.077V904H555.077ZM557.538 907.077V908.308H568.615V907.077H557.538ZM555.077 910.154V911.385H571.077V910.154H555.077ZM557.538 913.231V914.462H568.615V913.231H557.538ZM555.077 916.308V917.539H571.077V916.308H555.077Z" fill="#76DE99"/>
</g>
<defs>
<clipPath id="clip0_822_6602">
<rect width="16" height="16" fill="white"/>
</clipPath>
</defs>
</svg>
