<svg width="17" height="17" viewBox="0 0 17 17" fill="none" xmlns="http://www.w3.org/2000/svg">
<g clip-path="url(#clip0_822_6254)">
<path fill-rule="evenodd" clip-rule="evenodd" d="M9.27701 2.06186H7.21537C7.07867 2.06186 6.94758 2.11616 6.85092 2.21282C6.75426 2.30948 6.69996 2.44057 6.69996 2.57727V3.09268H9.79243V2.57727C9.79243 2.44057 9.73812 2.30948 9.64147 2.21282C9.54481 2.11616 9.41371 2.06186 9.27701 2.06186ZM11.3387 3.09268V2.57727C11.3387 2.03049 11.1215 1.5061 10.7348 1.11947C10.3482 0.732833 9.8238 0.515625 9.27701 0.515625H7.21537C6.66859 0.515625 6.1442 0.732833 5.75757 1.11947C5.37093 1.5061 5.15372 2.03049 5.15372 2.57727V3.09268H2.31999C2.11495 3.09268 1.9183 3.17413 1.77332 3.31912C1.62833 3.46411 1.54688 3.66076 1.54688 3.8658C1.54688 4.07084 1.62833 4.26749 1.77332 4.41247C1.9183 4.55746 2.11495 4.63892 2.31999 4.63892H2.64161L2.96838 12.4989C3.00163 13.2962 3.34178 14.0498 3.91772 14.6021C4.49367 15.1544 5.26081 15.4627 6.05879 15.4626H10.4346C11.2324 15.4624 11.9993 15.154 12.575 14.6017C13.1508 14.0495 13.4908 13.296 13.524 12.4989L13.8518 4.63892H14.1734C14.3785 4.63892 14.5751 4.55746 14.7201 4.41247C14.8651 4.26749 14.9465 4.07084 14.9465 3.8658C14.9465 3.66076 14.8651 3.46411 14.7201 3.31912C14.5751 3.17413 14.3785 3.09268 14.1734 3.09268H11.3387ZM12.3035 4.63892H4.18887L4.51358 12.434C4.53008 12.8327 4.7001 13.2096 4.98808 13.4859C5.27607 13.7622 5.65971 13.9164 6.05879 13.9163H10.4346C10.8335 13.9161 11.2169 13.7618 11.5047 13.4855C11.7924 13.2093 11.9623 12.8325 11.9788 12.434L12.3035 4.63892ZM5.92684 6.70056V11.8547C5.92684 12.0597 6.00829 12.2564 6.15328 12.4014C6.29827 12.5463 6.49491 12.6278 6.69996 12.6278C6.905 12.6278 7.10165 12.5463 7.24663 12.4014C7.39162 12.2564 7.47307 12.0597 7.47307 11.8547V6.70056C7.47307 6.49552 7.39162 6.29887 7.24663 6.15388C7.10165 6.0089 6.905 5.92744 6.69996 5.92744C6.49491 5.92744 6.29827 6.0089 6.15328 6.15388C6.00829 6.29887 5.92684 6.49552 5.92684 6.70056ZM9.79243 5.92744C9.99747 5.92744 10.1941 6.0089 10.3391 6.15388C10.4841 6.29887 10.5655 6.49552 10.5655 6.70056V11.8547C10.5655 12.0597 10.4841 12.2564 10.3391 12.4014C10.1941 12.5463 9.99747 12.6278 9.79243 12.6278C9.58738 12.6278 9.39074 12.5463 9.24575 12.4014C9.10076 12.2564 9.01931 12.0597 9.01931 11.8547V6.70056C9.01931 6.49552 9.10076 6.29887 9.24575 6.15388C9.39074 6.0089 9.58738 5.92744 9.79243 5.92744Z" fill="#ED4B4B"/>
</g>
<defs>
<clipPath id="clip0_822_6254">
<rect width="16.4932" height="16.4932" fill="white"/>
</clipPath>
</defs>
</svg>
