<svg width="19" height="19" viewBox="0 0 19 19" fill="none" xmlns="http://www.w3.org/2000/svg">
<path fill-rule="evenodd" clip-rule="evenodd" d="M17.0571 4.04632C17.2797 4.26901 17.4048 4.571 17.4048 4.88588C17.4048 5.20077 17.2797 5.50276 17.0571 5.72545L8.1564 14.6262C8.03878 14.7438 7.89913 14.8371 7.74543 14.9008C7.59173 14.9645 7.42699 14.9973 7.26063 14.9973C7.09426 14.9973 6.92953 14.9645 6.77583 14.9008C6.62213 14.8371 6.48248 14.7438 6.36486 14.6262L1.94261 10.2047C1.82919 10.0952 1.73872 9.96412 1.67649 9.81924C1.61425 9.67436 1.58149 9.51854 1.58012 9.36086C1.57875 9.20318 1.6088 9.04682 1.66851 8.90088C1.72822 8.75494 1.81639 8.62235 1.92789 8.51085C2.03939 8.39935 2.17197 8.31118 2.31791 8.25147C2.46385 8.19176 2.62022 8.16172 2.7779 8.16309C2.93557 8.16446 3.0914 8.19722 3.23628 8.25945C3.38116 8.32169 3.51219 8.41215 3.62173 8.52557L7.26023 12.1641L15.3772 4.04632C15.4875 3.93597 15.6184 3.84843 15.7625 3.78871C15.9067 3.72898 16.0611 3.69824 16.2172 3.69824C16.3732 3.69824 16.5276 3.72898 16.6718 3.78871C16.8159 3.84843 16.9468 3.93597 17.0571 4.04632Z" fill="black"/>
</svg>
