<svg width="22" height="22" viewBox="0 0 22 22" fill="none" xmlns="http://www.w3.org/2000/svg">
<path fill-rule="evenodd" clip-rule="evenodd" d="M10.75 0C10.145 0 9.588 0.15 8.979 0.402C8.39 0.646 7.706 1.005 6.855 1.452L4.787 2.537C3.742 3.085 2.907 3.524 2.26 3.955C1.592 4.402 1.076 4.872 0.701 5.509C0.327 6.144 0.159 6.832 0.0779999 7.651C-5.21541e-08 8.446 0 9.423 0 10.653V10.847C0 12.077 -5.21541e-08 13.054 0.0779999 13.849C0.159 14.669 0.328 15.356 0.701 15.991C1.076 16.628 1.591 17.098 2.261 17.545C2.906 17.976 3.742 18.415 4.787 18.963L6.855 20.048C7.706 20.495 8.39 20.854 8.979 21.098C9.589 21.35 10.145 21.5 10.75 21.5C11.355 21.5 11.912 21.35 12.521 21.098C13.11 20.854 13.794 20.495 14.645 20.048L16.713 18.964C17.758 18.415 18.593 17.976 19.239 17.545C19.909 17.098 20.424 16.628 20.799 15.991C21.173 15.356 21.341 14.668 21.422 13.849C21.5 13.054 21.5 12.077 21.5 10.848V10.652C21.5 9.423 21.5 8.446 21.422 7.651C21.341 6.831 21.172 6.144 20.799 5.509C20.424 4.872 19.909 4.402 19.239 3.955C18.594 3.524 17.758 3.085 16.713 2.537L14.645 1.452C13.794 1.005 13.11 0.646 12.521 0.402C11.911 0.15 11.355 0 10.75 0ZM7.52 2.796C8.41 2.329 9.034 2.003 9.552 1.789C10.056 1.58 10.411 1.5 10.75 1.5C11.09 1.5 11.444 1.58 11.948 1.789C12.466 2.003 13.089 2.329 13.979 2.796L15.979 3.846C17.069 4.417 17.834 4.82 18.407 5.202C18.689 5.391 18.91 5.566 19.09 5.742L15.759 7.407L7.259 2.933L7.52 2.796ZM5.695 3.754L5.521 3.846C4.431 4.417 3.666 4.82 3.094 5.202C2.85012 5.36048 2.62147 5.54125 2.411 5.742L10.75 9.912L14.107 8.232L5.901 3.914C5.82404 3.8723 5.75445 3.81824 5.695 3.754ZM1.688 7.057C1.638 7.271 1.599 7.514 1.571 7.797C1.501 8.511 1.5 9.414 1.5 10.691V10.808C1.5 12.086 1.5 12.989 1.571 13.702C1.64 14.399 1.771 14.85 1.994 15.23C2.216 15.607 2.537 15.926 3.094 16.298C3.666 16.68 4.431 17.083 5.521 17.654L7.521 18.704C8.411 19.171 9.034 19.497 9.552 19.711C9.71467 19.7783 9.864 19.8333 10 19.876V11.213L1.688 7.057ZM11.5 19.875C11.636 19.833 11.7853 19.7783 11.948 19.711C12.466 19.497 13.089 19.171 13.979 18.704L15.979 17.654C17.069 17.082 17.834 16.68 18.407 16.298C18.963 15.926 19.284 15.607 19.507 15.23C19.73 14.85 19.86 14.4 19.929 13.702C19.999 12.989 20 12.086 20 10.809V10.692C20 9.414 20 8.511 19.929 7.798C19.9055 7.54914 19.8664 7.30199 19.812 7.058L16.5 8.713V11.75C16.5 11.9489 16.421 12.1397 16.2803 12.2803C16.1397 12.421 15.9489 12.5 15.75 12.5C15.5511 12.5 15.3603 12.421 15.2197 12.2803C15.079 12.1397 15 11.9489 15 11.75V9.464L11.5 11.214V19.875Z" fill="#F3F3F3"/>
</svg>
