<svg width="41" height="41" viewBox="0 0 41 41" fill="none" xmlns="http://www.w3.org/2000/svg">
<path d="M35.8749 25.6257H31.6041C30.9249 25.627 30.2739 25.8974 29.7936 26.3777C29.3134 26.858 29.0429 27.509 29.0416 28.1882C29.0429 28.8674 29.3134 29.5183 29.7936 29.9986C30.2739 30.4789 30.9249 30.7493 31.6041 30.7507H33.3124C33.9916 30.752 34.6426 31.0224 35.1229 31.5027C35.6032 31.983 35.8736 32.634 35.8749 33.3132C35.8736 33.9924 35.6032 34.6433 35.1229 35.1236C34.6426 35.6039 33.9916 35.8743 33.3124 35.8757H29.0416M32.4583 35.8757V37.584M32.4583 23.9173V25.6257M22.2083 35.8757H10.2499C9.34376 35.8757 8.47472 35.5157 7.83397 34.8749C7.19322 34.2342 6.83325 33.3651 6.83325 32.459V15.3757C6.83325 14.4695 7.19322 13.6005 7.83397 12.9597C8.47472 12.319 9.34376 11.959 10.2499 11.959H13.6666M34.1666 17.289V15.3757C34.1666 14.4695 33.8066 13.6005 33.1659 12.9597C32.5251 12.319 31.6561 11.959 30.7499 11.959H27.3333" stroke="#76DE99" stroke-width="2" stroke-linecap="round" stroke-linejoin="round"/>
<path d="M27.3333 17.0837V6.83366C27.3333 5.9275 26.9733 5.05846 26.3325 4.41771C25.6918 3.77696 24.8227 3.41699 23.9166 3.41699H17.0833C16.1771 3.41699 15.3081 3.77696 14.6673 4.41771C14.0266 5.05846 13.6666 5.9275 13.6666 6.83366V17.0837M27.3333 17.0837H13.6666M27.3333 17.0837H29.0416M13.6666 17.0837H11.9583M13.6666 23.917V23.9341M13.6666 29.042V29.0591M20.4999 23.8999V23.917M20.4999 29.042V29.0591" stroke="#76DE99" stroke-width="2" stroke-linecap="round" stroke-linejoin="round"/>
</svg>
