<svg width="41" height="41" viewBox="0 0 41 41" fill="none" xmlns="http://www.w3.org/2000/svg">
<path d="M35.8748 3.41699H10.2498C9.34368 3.41699 8.47464 3.77696 7.83389 4.41771C7.19314 5.05846 6.83317 5.9275 6.83317 6.83366V11.9587H3.4165V15.3753H6.83317V18.792H3.4165V22.2087H6.83317V25.6253H3.4165V29.042H6.83317V34.167C6.83317 35.0731 7.19314 35.9422 7.83389 36.5829C8.47464 37.2237 9.34368 37.5837 10.2498 37.5837H35.8748C36.3279 37.5837 36.7624 37.4037 37.0828 37.0833C37.4032 36.7629 37.5832 36.3284 37.5832 35.8753V5.12533C37.5832 4.67225 37.4032 4.23773 37.0828 3.91735C36.7624 3.59698 36.3279 3.41699 35.8748 3.41699ZM22.2082 8.54028C25.0235 8.54028 27.3332 10.8482 27.3332 13.6653C27.3291 15.0234 26.7879 16.3248 25.8277 17.2853C24.8675 18.2459 23.5663 18.7875 22.2082 18.792C19.3945 18.792 17.0832 16.4806 17.0832 13.6653C17.0832 10.8482 19.3945 8.54028 22.2082 8.54028ZM32.4582 30.7503H11.9582V29.4691C11.9582 25.6783 16.5792 21.7816 22.2082 21.7816C27.8371 21.7816 32.4582 25.6783 32.4582 29.4691V30.7503Z" fill="#76DE99"/>
</svg>
