<svg width="41" height="41" viewBox="0 0 41 41" fill="none" xmlns="http://www.w3.org/2000/svg">
<path d="M13.1762 28.5514C13.5031 28.2234 13.6665 27.8174 13.6665 27.3333C13.6665 26.8493 13.5025 26.4439 13.1745 26.117C12.8465 25.7901 12.4411 25.6261 11.9582 25.625C11.4753 25.6239 11.0698 25.7879 10.7418 26.117C10.4138 26.4461 10.2498 26.8516 10.2498 27.3333C10.2498 27.8151 10.4138 28.2211 10.7418 28.5514C11.0698 28.8817 11.4753 29.0451 11.9582 29.0417C12.4411 29.0382 12.8471 28.876 13.1762 28.5514ZM10.2498 22.2083H13.6665V11.9583H10.2498V22.2083ZM18.7915 29.0417H30.7498V25.625H18.7915V29.0417ZM18.7915 22.2083H30.7498V18.7917H18.7915V22.2083ZM18.7915 15.375H30.7498V11.9583H18.7915V15.375ZM6.83317 35.875C5.89359 35.875 5.08953 35.5407 4.421 34.8722C3.75248 34.2037 3.41764 33.3991 3.4165 32.4583V8.54167C3.4165 7.60208 3.75134 6.79803 4.421 6.1295C5.09067 5.46097 5.89473 5.12614 6.83317 5.125H34.1665C35.1061 5.125 35.9107 5.45983 36.5804 6.1295C37.25 6.79917 37.5843 7.60322 37.5832 8.54167V32.4583C37.5832 33.3979 37.2489 34.2025 36.5804 34.8722C35.9119 35.5419 35.1072 35.8761 34.1665 35.875H6.83317ZM6.83317 32.4583H34.1665V8.54167H6.83317V32.4583Z" fill="#76DE99"/>
</svg>
