<svg width="37" height="35" viewBox="0 0 37 35" fill="none" xmlns="http://www.w3.org/2000/svg">
<rect width="37" height="35" rx="10" fill="#F34C4C" fill-opacity="0.16"/>
<path d="M11.8122 16.262C14.7302 11.087 16.1892 8.5 18.5002 8.5C20.8112 8.5 22.2702 11.087 25.1882 16.262L25.5522 16.906C27.9772 21.206 29.1902 23.356 28.0942 24.928C26.9982 26.5 24.2862 26.5 18.8642 26.5H18.1362C12.7142 26.5 10.0022 26.5 8.90624 24.928C7.81024 23.356 9.02324 21.206 11.4482 16.906L11.8122 16.262Z" stroke="#F34C4C" stroke-width="1.5"/>
<path d="M18.5 13.5V18.5" stroke="#F34C4C" stroke-width="1.5" stroke-linecap="round"/>
<path d="M18.5 22.5C19.0523 22.5 19.5 22.0523 19.5 21.5C19.5 20.9477 19.0523 20.5 18.5 20.5C17.9477 20.5 17.5 20.9477 17.5 21.5C17.5 22.0523 17.9477 22.5 18.5 22.5Z" fill="#F34C4C"/>
</svg>
