<svg width="297" height="54" viewBox="0 0 297 54" fill="none" xmlns="http://www.w3.org/2000/svg">
<path d="M276 0.5V0V0V0.5ZM276 41.5V42V42V41.5ZM39.9844 41.5V41H39.8376L39.7142 41.0793L39.9844 41.5ZM8 52.5L7.59122 52.2121L6.85967 53.2507L8.10287 52.9893L8 52.5ZM16.1553 40.9219L16.564 41.2098L16.9872 40.609L16.273 40.4359L16.1553 40.9219ZM21 0.5V0V0V0.5ZM276 0.5V1C287.046 1 296 9.95431 296 21H296.5H297C297 9.40202 287.598 4.23193e-06 276 0V0.5ZM296.5 21H296C296 32.0457 287.046 41 276 41V41.5V42C287.598 42 297 32.598 297 21H296.5ZM276 41.5V41H39.9844V41.5V42H276V41.5ZM39.9844 41.5L39.7142 41.0793C36.2076 43.3315 30.5123 45.5928 24.5369 47.5324C18.5732 49.4682 12.3765 51.069 7.89713 52.0107L8 52.5L8.10287 52.9893C12.6165 52.0404 18.8476 50.4305 24.8456 48.4836C30.8319 46.5405 36.6324 44.2471 40.2546 41.9207L39.9844 41.5ZM8 52.5L8.40878 52.7879L16.564 41.2098L16.1553 40.9219L15.7465 40.6339L7.59122 52.2121L8 52.5ZM16.1553 40.9219L16.273 40.4359C7.50866 38.3121 1 30.4165 1 21H0.5H0C0 30.8888 6.83513 39.1778 16.0375 41.4078L16.1553 40.9219ZM0.5 21H1C1 9.95431 9.95431 1 21 1V0.5V0C9.40202 5.66244e-07 0 9.40202 0 21H0.5ZM21 0.5V1H276V0.5V0H21V0.5Z" fill="#76DE99"/>
</svg>
